# xmcd
#
# Track frame offsets:
#	150
#	8293
#	25622
#	42995
#	64037
#	76339
#	77499
#	88819
#	106731
#	127867
#	144774
#	159183
#	178221
#	191954
#	210034
#	213428
#	231333
#	236713
#	256720
#	276325
#	298225
#	320832
#	341516
#
# Disc length: 4673 seconds
#
# Revision: 1
# Processed by: cddbd v1.5.2PL0 Copyright (c) Steve Scherf et al.
# Submitted via: audiograbber 1.83.01
#
DISCID=34123f17
DTITLE=D-Dubb - Mr. Simpson (Hip-Hop Soul Vol. 1)
DYEAR=2004
DGENRE=Rap
TTITLE0=D-Dubb - Mr. Simpson
TTITLE1=D-Dubb - Do My Thang
TTITLE2=D-Dubb - Getwhatchacamefo
TTITLE3=D-Dubb, Zagg, Phonk Beta - Innocent
TTITLE4=D-Dubb, E-Moe - Everybody
TTITLE5=D-Dubb - No Joke (Skit 1)
TTITLE6=D-Dubb - Mac 1.0
TTITLE7=D-Dubb, J-Killa - Situations
TTITLE8=D-Dubb - No Cho Fool
TTITLE9=T.O.E. - So Good
TTITLE10=D-Dubb - Music Rhapsody (Interlude)
TTITLE11=D-Dubb, Smoke Dogg, Young Sick - Caddys
TTITLE12=D-Dubb - The Blues
TTITLE13=D-Dubb, COS, J-Killa - Babymamadrama
TTITLE14=D-Dubb - U Don't Know Me (Interlude)
TTITLE15=D-Dubb, Brotha Lynch Hung - Why Hate?
TTITLE16=D-Dubb - Before U Go (Skit 2)
TTITLE17=D-Dubb - See U Go
TTITLE18=D-Dubb - High Life Everyday
TTITLE19=D-Dubb, COS - Rilla Man
TTITLE20=D-Dubb, Double O Smeeb, E&J - Whatyaknow
TTITLE21=D-Dubb, E-Moe - Watch Me Shine (Remix)
TTITLE22=D-Dubb - Trust In God
EXTD=Cashflow420.com
EXTT0=
EXTT1=
EXTT2=
EXTT3=
EXTT4=
EXTT5=
EXTT6=
EXTT7=
EXTT8=
EXTT9=
EXTT10=
EXTT11=
EXTT12=
EXTT13=
EXTT14=
EXTT15=
EXTT16=
EXTT17=
EXTT18=
EXTT19=
EXTT20=
EXTT21=
EXTT22=
PLAYORDER=
